{
	"asset":{
		"version":"2.0",
		"generator":"Houdini GLTF 2.0 Exporter"
	},
	"accessors":[
		{
			"bufferView":0,
			"componentType":5125,
			"count":841644,
			"type":"SCALAR",
			"min":[0
			],
			"max":[841643
			]
		},
		{
			"bufferView":1,
			"componentType":5126,
			"count":841644,
			"type":"VEC3",
			"min":[-1.31869996,-1.25489998,0.00170000002
			],
			"max":[1.31869996,1.25610006,0.659300029
			]
		},
		{
			"bufferView":2,
			"componentType":5126,
			"count":841644,
			"type":"VEC3",
			"min":[-0.999996781,-0.999988079,-1
			],
			"max":[0.999995232,1,1
			]
		},
		{
			"bufferView":3,
			"componentType":5126,
			"count":841644,
			"type":"VEC2",
			"min":[0.0273000002,0.0504000187
			],
			"max":[0.933899999,0.959500015
			]
		}
	],
	"buffers":[
		{
			"uri":"Bracelet_data.bin",
			"byteLength":30299184,
			"name":"main_buffer"
		}
	],
	"bufferViews":[
		{
			"buffer":0,
			"byteLength":3366576,
			"target":34963
		},
		{
			"buffer":0,
			"byteOffset":3366576,
			"byteLength":10099728,
			"target":34962
		},
		{
			"buffer":0,
			"byteOffset":13466304,
			"byteLength":10099728,
			"target":34962
		},
		{
			"buffer":0,
			"byteOffset":23566032,
			"byteLength":6733152,
			"target":34962
		}
	],
	"nodes":[
		{
			"name":"13088_c-shapedBracelet_l3",
			"mesh":0
		}
	],
	"meshes":[
		{
			"primitives":[
				{
					"attributes":{
						"TEXCOORD_0":3,
						"NORMAL":2,
						"POSITION":1
					},
					"indices":0,
					"material":0
				}
			]
		}
	],
	"materials":[
		{
			"name":"platinum",
			"pbrMetallicRoughness":{
				"baseColorFactor":[0.669606984,0.639872015,0.599869013,1
				],
				"roughnessFactor":0.300000012
			}
		}
	],
	"scenes":[
		{
			"nodes":[0
			]
		}
	],
	"scene":0
}
